<?xml version="1.0" encoding="UTF-8" standalone="no"?>
<svg
   xmlns:dc="http://purl.org/dc/elements/1.1/"
   xmlns:cc="http://creativecommons.org/ns#"
   xmlns:rdf="http://www.w3.org/1999/02/22-rdf-syntax-ns#"
   xmlns:svg="http://www.w3.org/2000/svg"
   xmlns="http://www.w3.org/2000/svg"
   xmlns:sodipodi="http://sodipodi.sourceforge.net/DTD/sodipodi-0.dtd"
   xmlns:inkscape="http://www.inkscape.org/namespaces/inkscape"
   sodipodi:docname="crown.svg"
   inkscape:version="1.0 (1.0+r73+1)"
   id="svg117768"
   version="1.1"
   viewBox="0 0 23.925011 18.021025"
   height="18.021025mm"
   width="23.925011mm">
  <defs
     id="defs117762" />
  <sodipodi:namedview
     inkscape:window-maximized="1"
     inkscape:window-y="0"
     inkscape:window-x="0"
     inkscape:window-height="703"
     inkscape:window-width="1366"
     showgrid="false"
     inkscape:document-rotation="0"
     inkscape:current-layer="layer1"
     inkscape:document-units="mm"
     inkscape:cy="45.241845"
     inkscape:cx="193.71695"
     inkscape:zoom="1.2931713"
     inkscape:pageshadow="2"
     inkscape:pageopacity="0.0"
     borderopacity="1.0"
     bordercolor="#666666"
     pagecolor="#ffffff"
     id="base" />
  <metadata
     id="metadata117765">
    <rdf:RDF>
      <cc:Work
         rdf:about="">
        <dc:format>image/svg+xml</dc:format>
        <dc:type
           rdf:resource="http://purl.org/dc/dcmitype/StillImage" />
        <dc:title></dc:title>
      </cc:Work>
    </rdf:RDF>
  </metadata>
  <g
     id="layer1"
     inkscape:groupmode="layer"
     inkscape:label="Layer 1">
    <path
       style="fill:#000000;stroke-width:0.0846667"
       d="m 4.0317732,17.988715 c -0.404849,-0.02035 -0.4643556,-0.119224 -0.4658595,-0.400847 -0.0019,-0.35916 0.025956,-0.358226 8.3232893,-0.381484 4.563534,-0.01279 8.379203,-0.0035 8.479265,0.02063 0.14639,0.03531 0.18786,0.118424 0.212278,0.425424 0.03034,0.381537 0.03034,0.381537 -10.384265,0.362075 -5.7280365,-0.01071 -5.5019747,0.0075 -6.1647078,-0.0258 z m -0.00246,-1.281185 c -0.031045,-0.03104 -0.056445,-0.434699 -0.056445,-0.897009 0,-0.840567 0,-0.840567 -0.6203884,-1.419941 C 2.6929985,13.774695 2.3047764,13.164349 1.954019,12.191975 1.6808236,11.43462 1.6051411,9.8514658 1.8042622,9.0593073 2.6045525,5.8755324 5.7453811,4.5046078 9.9418701,5.5073641 10.36097,5.6075086 10.791088,5.709441 10.897687,5.7338803 c 0.192629,0.044163 0.193665,0.039575 0.169333,-0.7492355 -0.01949,-0.631912 -0.05037,-0.7959942 -0.151483,-0.805071 -0.06985,-0.00627 -0.155999,-0.015796 -0.191443,-0.021167 -0.03544,-0.00537 0.131897,-0.2797099 0.371868,-0.6096405 0.436311,-0.5998737 0.436311,-0.5998737 0.214519,-0.8216667 -0.246683,-0.2466836 -0.165975,-0.276499 -1.051111,0.3883022 -0.2751669,0.20667 -0.2751669,0.20667 -0.2751669,-1.0783553 0,-1.28502535 0,-1.28502535 0.5291669,-0.8956194 0.674084,0.4960489 0.699084,0.5060572 0.904548,0.3621448 0.169531,-0.1187438 0.380601,-0.2013312 -0.351638,-1.27812567 -0.192066,-0.2824432 0.06052,-0.2179801 0.872178,-0.2201957 0.723507,-0.00197 1.042781,-0.052405 0.882489,0.2050546 -0.753444,1.08341747 -0.598375,1.09510357 -0.506009,1.19782747 0.17102,0.1710188 0.276132,0.3050043 0.920032,-0.1711824 0.6439,-0.47618655 0.6439,-0.47618655 0.6439,0.797257 0,1.2734436 0,1.2734436 -0.563805,0.8466323 C 12.751261,2.4540282 12.751261,2.4540282 12.515853,2.6875014 12.32225,2.8795135 12.29833,2.9453669 12.381158,3.058334 c 0.05539,0.075548 0.262637,0.3501461 0.460545,0.610218 0.197909,0.2600722 0.359834,0.49593 0.359834,0.5241288 0,0.028199 -0.08573,0.039351 -0.1905,0.024781 -0.184442,-0.025646 -0.191278,-0.00127 -0.214977,0.7667736 -0.02448,0.7932622 -0.02448,0.7932622 0.211666,0.7443735 0.129879,-0.026889 0.674294,-0.1501108 1.209811,-0.2738266 1.281961,-0.29616 3.08368,-0.3349677 4.064,-0.087535 1.327411,0.3350379 2.500687,1.1292898 3.108633,2.1043953 0.574777,0.9219062 0.720318,1.4131832 0.766091,2.5859524 0.05105,1.307906 -0.05406,1.871622 -0.535057,2.869729 -0.284902,0.591192 -0.506934,0.909844 -0.925888,1.328797 -0.551113,0.551113 -0.551113,0.551113 -0.551113,1.529483 0,0.978371 0,0.978371 -8.029221,0.978371 -4.4160732,0 -8.0546232,-0.0254 -8.0856675,-0.05645 z m 8.4887448,-0.589973 c 0.237512,-0.30195 0.224744,-0.66668 -0.03234,-0.923764 -0.507674,-0.507675 -1.388662,0.03465 -1.14094,0.702349 0.118828,0.320282 0.309267,0.4445 0.681463,0.4445 0.240902,0 0.358185,-0.0532 0.491818,-0.223085 z M 8.0821985,15.964343 c 0.2171888,-0.217189 0.2099302,-0.382685 -0.028987,-0.660868 -0.167853,-0.195439 -0.365768,-0.187274 -0.5930435,0.02447 -0.3377747,0.314684 -0.1409948,0.78818 0.3477171,0.836683 0.037042,0.0037 0.1604824,-0.08645 0.2743133,-0.20028 z m 2.0524995,0.07517 c 0.338294,-0.236951 0.156547,-0.8842 -0.2482839,-0.8842 -0.206929,0 -0.494878,0.295584 -0.494878,0.508 0,0.189317 0.280309,0.508 0.446828,0.508 0.05949,0 0.1928399,-0.05931 0.2963339,-0.1318 z m 4.233333,0 c 0.224931,-0.157549 0.248044,-0.508376 0.04805,-0.729366 -0.184538,-0.203912 -0.356028,-0.195483 -0.595254,0.02926 -0.240684,0.226112 -0.249276,0.439923 -0.02662,0.662575 0.203786,0.203786 0.325136,0.211723 0.573828,0.03753 z m 2.116667,0 c 0.354689,-0.248435 0.141617,-0.8842 -0.296334,-0.8842 -0.166519,0 -0.446827,0.318684 -0.446827,0.508 0,0.189317 0.280308,0.508 0.446827,0.508 0.05949,0 0.192839,-0.05931 0.296334,-0.1318 z m 2.183966,-0.06366 c 0.268114,-0.230622 0.231029,-0.490459 -0.101054,-0.708048 -0.17525,-0.114828 -0.241671,-0.119557 -0.410457,-0.02922 -0.358345,0.191781 -0.365623,0.706902 -0.01201,0.849784 0.259671,0.104924 0.274418,0.101754 0.523517,-0.112511 z M 6.0549888,15.874975 C 6.1836684,15.678586 6.1834533,15.647703 6.052007,15.447091 5.8706182,15.170257 5.7064286,15.1098 5.4514729,15.225965 c -0.2430454,0.110739 -0.3446714,0.437098 -0.2128237,0.683457 0.1420236,0.265374 0.6334771,0.244636 0.8163396,-0.03445 z m 1.2555868,-1.640276 c 0.028448,-0.04603 0.012457,-0.107958 -0.035535,-0.137618 -0.12905,-0.07976 -0.4130542,-0.66739 -0.6081839,-1.258393 C 6.4020732,12.03672 6.4227133,10.797076 6.7126869,10.086143 7.1154044,9.098795 7.6979844,8.5698117 8.7289704,8.2553547 9.2039341,8.1104881 9.9049511,8.1124675 10.76737,8.2611047 c 0.3175,0.054723 0.3175,0.054723 0.3175,-0.7010781 0,-0.7558011 0,-0.7558011 -0.4445,-0.8946031 C 7.694844,5.745641 5.1105599,6.0224854 3.763617,7.4021083 3.27473,7.9028569 2.8263525,8.7468531 2.7026296,9.3992398 2.5379164,10.26777 2.6409766,11.553063 2.917902,12.083954 c 0.067425,0.129261 0.1228262,0.275873 0.123113,0.325805 8.996e-4,0.154882 0.704052,1.098241 1.0272491,1.378154 0.5347393,0.463125 0.6587492,0.495434 1.9712447,0.513599 0.7311121,0.01012 1.2400537,-0.01664 1.2710668,-0.06681 z M 5.4298885,13.543662 C 5.1673975,13.437024 4.9849109,12.9906 5.085665,12.701577 5.164926,12.47421 5.5486993,12.191975 5.778604,12.191975 c 0.070734,0 0.2458305,0.09864 0.3891031,0.219193 0.6206403,0.522234 0.02196,1.441159 -0.7378186,1.132494 z M 4.9103484,11.630224 c -0.2083583,-0.264885 -0.2202722,-0.460703 -0.048268,-0.793323 0.2649189,-0.512298 1.0563442,-0.385927 1.2516025,0.199846 0.06189,0.185671 0.037818,0.289241 -0.1216618,0.523438 C 5.8188672,11.814463 5.7475474,11.852226 5.4395148,11.85273 5.157873,11.853153 5.0500817,11.80787 4.9103484,11.630224 Z m 0.254,-1.7780012 C 4.7883511,9.3742198 5.0960936,8.7206406 5.6971618,8.7206406 c 0.2228551,0 0.3449344,0.06213 0.5118484,0.260496 C 6.4520747,9.2700018 6.4754451,9.4050728 6.3297068,9.6787068 6.1791385,9.9614098 5.9926699,10.069662 5.6511817,10.072615 5.4137735,10.074715 5.2981508,10.022325 5.1643484,9.8522228 Z M 6.5513548,8.5974892 C 6.1233071,8.1694413 6.4121824,7.4506406 7.0122563,7.4506406 c 0.6412082,0 0.9546913,0.7512444 0.4828445,1.1571097 -0.3024785,0.2601812 -0.6773801,0.2561048 -0.943746,-0.01026 z M 8.3291604,7.8192774 C 7.9070862,7.3638517 8.2105775,6.6886406 8.8373554,6.6886406 c 0.4094627,0 0.6388477,0.2420186 0.6388477,0.6740353 0,0.6469094 -0.7090797,0.9291717 -1.1470427,0.4566015 z M 11.064973,11.795866 C 11.087413,9.3254218 11.087413,9.3254218 10.441476,9.1817157 9.3203721,8.932294 8.4364642,9.1788757 7.8917893,9.8929908 7.5216941,10.378219 7.4189426,10.817557 7.4630161,11.726308 c 0.030798,0.635014 0.081512,0.854697 0.3043209,1.318238 0.1470504,0.305931 0.4154212,0.716612 0.5963801,0.912626 0.3290153,0.356388 0.3290153,0.356388 1.503917,0.332762 1.1749029,-0.02363 1.1749029,-0.02363 1.1973389,-2.494068 z m 4.440523,2.165446 c 0.341994,-0.359511 0.773366,-1.155292 0.873576,-1.611546 0.03158,-0.143802 0.05547,-0.559773 0.05308,-0.924381 -0.0076,-1.163912 -0.526375,-1.9561712 -1.462935,-2.2342991 -0.564675,-0.1676908 -0.882435,-0.1658948 -1.607397,0.00909 -0.583615,0.1408619 -0.583615,0.1408619 -0.583615,2.5682231 0,1.335047 0.0254,2.452759 0.05645,2.483803 0.03104,0.03105 0.570344,0.05645 1.198442,0.05645 1.141999,0 1.141999,0 1.472406,-0.34733 z m 4.067212,0.0093 c 0.765157,-0.547918 1.357219,-1.495696 1.576466,-2.523626 0.117024,-0.548664 0.120976,-1.6187052 0.0079,-2.1336672 -0.223943,-1.0196794 -1.02093,-2.0831991 -1.92343,-2.5666741 -1.443069,-0.7730598 -3.503172,-0.8017685 -5.96859,-0.083175 -0.486833,0.1418969 -0.486833,0.1418969 -0.486833,0.8971365 0,0.7552396 0,0.7552396 0.3175,0.7010225 1.239387,-0.2116412 2.089419,-0.1118886 2.867055,0.3364535 1.441021,0.8308146 1.873555,3.0373148 0.963828,4.9168078 -0.186111,0.384504 -0.338383,0.718301 -0.338383,0.741772 0,0.02347 0.565572,0.04457 1.256828,0.04689 1.256829,0.0042 1.256829,0.0042 1.727676,-0.332944 z m -1.714505,-0.398506 c -0.219222,-0.07914 -0.419492,-0.396025 -0.42145,-0.666861 -0.002,-0.280006 0.242374,-0.567705 0.565385,-0.665556 0.260858,-0.07902 0.658193,0.148367 0.782143,0.447611 0.218512,0.527531 -0.366757,1.086717 -0.926078,0.884806 z m 0.329734,-1.729295 c -0.436448,-0.158501 -0.545901,-0.79702 -0.196513,-1.146408 0.181532,-0.181532 0.269823,-0.209573 0.529166,-0.168059 0.574523,0.09196 0.798142,0.682623 0.417113,1.101746 -0.231694,0.254859 -0.457403,0.318896 -0.749766,0.212721 z M 17.985203,10.079143 C 17.47405,9.8723148 17.347637,9.3081758 17.727355,8.9284576 c 0.430119,-0.4301189 1.146848,-0.121865 1.146848,0.4932412 0,0.447613 -0.497786,0.8157422 -0.889,0.6574442 z M 16.377728,8.602529 c -0.280041,-0.2800413 -0.282107,-0.6670029 -0.005,-0.9440701 0.272681,-0.2726814 0.71199,-0.2806644 0.953025,-0.01732 0.280602,0.3065756 0.301896,0.5116216 0.08644,0.8323992 -0.261209,0.3889024 -0.717604,0.4458132 -1.034428,0.1289892 z M 14.594689,7.8354892 c -0.291343,-0.2913414 -0.284358,-0.7356856 0.01527,-0.9713701 0.479386,-0.3770852 1.131582,-0.087837 1.131582,0.5018548 0,0.6084933 -0.715108,0.9012555 -1.146848,0.4695153 z M 2.4636286,15.890685 c -0.2522707,-0.26853 -0.2466312,-0.731773 0.011865,-0.974618 0.4234391,-0.3978 1.1587099,-0.08481 1.1587099,0.493241 0,0.587457 -0.7724828,0.905126 -1.1705749,0.481377 z m 17.9629904,-0.02193 c -0.177824,-0.177824 -0.209117,-0.271923 -0.170193,-0.511781 0.05825,-0.35897 0.34952,-0.618406 0.698519,-0.622181 0.56562,-0.0061 0.868367,0.773408 0.459258,1.182516 -0.247724,0.247725 -0.714241,0.224789 -0.987584,-0.04855 z M 1.5549624,14.751845 C 1.3852966,14.634023 1.1788701,14.270581 1.1788701,14.089682 c 0,-0.287302 0.3987279,-0.627707 0.7352549,-0.627707 0.3226467,0 0.7040785,0.33005 0.7040785,0.609234 0,0.229211 -0.2230138,0.630758 -0.3847934,0.692839 -0.1853825,0.07114 -0.5683544,0.06425 -0.6784477,-0.0122 z M 21.452494,14.592612 C 21.337997,14.469067 21.24487,14.265378 21.24487,14.13849 c 0,-0.324913 0.374028,-0.676515 0.719666,-0.676515 0.35486,0 0.719667,0.351151 0.719667,0.692727 0,0.600972 -0.812781,0.88994 -1.231709,0.43791 z M 0.60096196,13.012018 c -0.4107112,-0.437182 -0.1109561,-1.15871 0.48138004,-1.15871 0.5820603,0 0.8827762,0.662399 0.5137163,1.131582 -0.2343896,0.297979 -0.72800394,0.311435 -0.99509634,0.02713 z M 22.299355,13.000158 c -0.269987,-0.269987 -0.270064,-0.631624 -1.69e-4,-0.922818 0.437276,-0.471829 1.147043,-0.17486 1.147043,0.479927 0,0.619336 -0.700056,0.889685 -1.146849,0.442891 z M 0.24102386,11.351821 c -0.32453317,-0.324533 -0.32143597,-0.622923 0.00991,-0.954264 0.2146049,-0.214605 0.3016465,-0.248542 0.523611,-0.204149 0.52910984,0.105822 0.76101104,0.538413 0.52907154,0.986935 -0.2391047,0.462378 -0.69768364,0.536382 -1.06258754,0.171478 z m 22.63921414,0.16223 c -0.546914,-0.220357 -0.461505,-1.182737 0.114741,-1.292893 0.321391,-0.06144 0.568575,0.05134 0.788034,0.359543 0.177154,0.24879 0.18018,0.278322 0.05544,0.541182 -0.12382,0.26093 -0.441347,0.484181 -0.671405,0.472058 -0.05602,-0.003 -0.185084,-0.0389 -0.286815,-0.07989 z M 0.43803666,9.6872318 c -0.54402427,-0.4287563 -0.2698413,-1.2205912 0.4226451,-1.2205912 0.22962264,0 0.34965344,0.055626 0.48137654,0.2230848 0.3209234,0.407988 0.1905143,0.8938544 -0.2942839,1.0964164 -0.35177654,0.146982 -0.28373554,0.158019 -0.60973774,-0.09891 z M 22.71293,9.7421618 c -0.435249,-0.265395 -0.477469,-0.7488322 -0.0964,-1.1038486 0.413411,-0.3851513 1.125555,-0.041828 1.109212,0.5347497 -0.0089,0.3154779 -0.110049,0.4669099 -0.423883,0.6348679 -0.241552,0.129275 -0.27522,0.125515 -0.588926,-0.06577 z M 1.0820168,8.1689185 C 0.65572316,7.9373332 0.60509076,7.2671248 0.99169866,6.9734 1.1891903,6.8233558 1.6097536,6.8303501 1.8339846,6.987407 2.0560391,7.14294 2.1626259,7.61782 2.030777,7.864182 1.9422559,8.0295852 1.5263128,8.3015641 1.3735746,8.2939169 1.3363371,8.2920648 1.2051361,8.235803 1.0820168,8.1689179 Z M 22.123904,8.1357135 c -0.297657,-0.1815047 -0.409691,-0.487706 -0.29185,-0.7976529 0.15663,-0.411969 0.714006,-0.6132663 1.02882,-0.3715605 0.400663,0.3076197 0.397879,0.8729343 -0.0057,1.1603183 -0.29627,0.2109626 -0.397851,0.2121982 -0.731256,0.0089 z M 1.9632004,6.5828073 C 1.688649,6.2865126 1.6788508,5.8499934 1.9408701,5.5879739 2.1738147,5.3550295 2.7070556,5.3587098 2.9206569,5.5947367 3.1567427,5.8556084 3.1358258,6.4075306 2.8820661,6.6130126 2.6090084,6.8341215 2.1830985,6.8201205 1.9632004,6.5828073 Z m 19.0899976,0.084667 c -0.226715,-0.172161 -0.321997,-0.52997 -0.219456,-0.8241195 0.214788,-0.6161424 1.158835,-0.5600203 1.298794,0.077211 0.06168,0.2808298 -0.124237,0.7169198 -0.341126,0.8001476 -0.224646,0.086205 -0.589204,0.059913 -0.738212,-0.053239 z M 19.623806,5.5615558 C 19.240511,5.3041295 19.185572,4.8455751 19.500315,4.5308323 c 0.521936,-0.5219362 1.38326,0.018367 1.140306,0.7153071 -0.04931,0.1414426 -0.100319,0.2571679 -0.11336,0.2571679 -0.01304,0 -0.157768,0.056012 -0.321615,0.1244721 -0.278951,0.1165532 -0.315968,0.1123403 -0.58184,-0.066224 z M 3.4186882,5.4648226 C 2.9906405,5.0367749 3.279516,4.3179742 3.8795899,4.3179742 c 0.4160605,0 0.6859466,0.2745544 0.6859466,0.6978115 0,0.5884887 -0.7239436,0.8719416 -1.1468483,0.4490369 z M 5.1887739,4.9322809 C 4.7857299,4.4973892 5.0979621,3.8083497 5.6967496,3.8112707 c 0.3086026,0.00151 0.3927388,0.04943 0.5881947,0.3350424 0.1967986,0.2875743 0.180177,0.4534611 -0.075934,0.7578317 -0.2938154,0.3491796 -0.7120148,0.3607128 -1.0202364,0.028136 z m 3.9388992,0.072065 c -0.2798677,-0.2266241 -0.2798677,-0.8074535 0,-1.0340776 0.344729,-0.2791434 0.9234129,-0.1561616 1.1011939,0.2340261 0.137654,0.3021171 0.118262,0.410524 -0.125189,0.6998504 C 9.8433351,5.2135435 9.4374781,5.2552109 9.1276731,5.0043459 Z m 4.6759099,-0.041388 c -0.274837,-0.2925497 -0.264252,-0.7071476 0.02439,-0.955427 0.658692,-0.566583 1.513241,0.2511425 0.976086,0.9340249 -0.236714,0.3009328 -0.727996,0.3114424 -1.000476,0.021402 z m 3.923772,-0.00614 c -0.612126,-0.6121263 0.240572,-1.5087685 0.923763,-0.9713701 0.170205,0.1338831 0.223085,0.2508009 0.223085,0.4932413 0,0.6265806 -0.70463,0.9203459 -1.146848,0.4781288 z m -10.5833338,-0.254 C 6.8869372,4.4457383 6.8741685,4.0810078 7.1116817,3.779059 7.4933046,3.2939041 8.2908699,3.611469 8.2908699,4.248574 c 0,0.3323648 -0.3373046,0.6620669 -0.6773334,0.6620669 -0.1649621,0 -0.3385156,-0.076819 -0.4695153,-0.2078183 z m 8.6723198,0.047524 c -0.150814,-0.122117 -0.197956,-0.245247 -0.197956,-0.5170344 0,-0.4198437 0.245615,-0.6773333 0.646098,-0.6773333 0.348112,0 0.536672,0.1198303 0.661047,0.4200975 0.124702,0.3010585 -8.73e-4,0.7151462 -0.258706,0.8531381 -0.24418,0.1306817 -0.636649,0.094289 -0.850483,-0.078864 z"
       id="path117709"
       sodipodi:nodetypes="ssssssssssssssssssssssssssccssssssssssssssssssssssssssssssssssssssssssssssssssssssssssssssssssscssssssssssssscssssscssssssssssssssssssssssssssssssssssssssssssssssssssssssssssssssssssssssssssssssssssssssscsscssccssssssssssssssssssssssssssssssssssssssssssssssssssssssssssssssssssssssssssssssssssss" />
  </g>
</svg>
